REM DIRINDEX 1\8,1\2\11,1\3\12,1\3\14,1\5\15,1\5\16,1\6\17,1\6\18,1\4\19,1\4\20,1\4\21,1\4\22,1\7\23,1\7\24,1\7\25,1\2\9\26,1\2\9\27,1\2\10\28,1\2\10\29,1\2\10\30,1\2\10\31,1\2\10\32,1\3\13\33,1\3\13\34,1\3\13\35
REM DIRNAME cjc123,folder01,folder02,folder03,folder04,folder05,folder06,folder07,folder08,folder09,folder10,folder11,folder12,folder13,folder14,folder15,folder16,folder17,folder18,folder19,folder20,folder21,folder22,folder23,folder24,folder25,folder26,folder27,folder28,folder29,folder30,folder31,folder32,folder33,folder34
TITLE ""
FILE "67 067_UNIT7_SET1.mp3" MP3
  TRACK 01 AUDIO
    TITLE "11:cjc123_6646"
    INDEX 01 00:00:00
  TRACK 02 AUDIO
    TITLE "0:"
    INDEX 01 00:02:38
  TRACK 03 AUDIO
    TITLE "28:cjc123_6647"
    INDEX 01 00:03:17
  TRACK 04 AUDIO
    TITLE "0:"
    INDEX 01 00:04:29
  TRACK 05 AUDIO
    TITLE "29:cjc123_6648"
    INDEX 01 00:04:44
  TRACK 06 AUDIO
    TITLE "0:"
    INDEX 01 00:05:71
  TRACK 07 AUDIO
    TITLE "30:cjc123_6649"
    INDEX 01 00:06:04
  TRACK 08 AUDIO
    TITLE "0:"
    INDEX 01 00:07:17
  TRACK 09 AUDIO
    TITLE "31:cjc123_6650"
    INDEX 01 00:08:05
  TRACK 10 AUDIO
    TITLE "0:"
    INDEX 01 00:11:68
  TRACK 11 AUDIO
    TITLE "32:cjc123_6651"
    INDEX 01 00:12:20
  TRACK 12 AUDIO
    TITLE "0:"
    INDEX 01 00:17:23
  TRACK 13 AUDIO
    TITLE "28:cjc123_6652"
    INDEX 01 00:17:55
  TRACK 14 AUDIO
    TITLE "0:"
    INDEX 01 00:18:74
  TRACK 15 AUDIO
    TITLE "29:cjc123_6653"
    INDEX 01 00:19:07
  TRACK 16 AUDIO
    TITLE "0:"
    INDEX 01 00:20:37
  TRACK 17 AUDIO
    TITLE "30:cjc123_6654"
    INDEX 01 00:20:47
  TRACK 18 AUDIO
    TITLE "0:"
    INDEX 01 00:21:60
  TRACK 19 AUDIO
    TITLE "31:cjc123_6655"
    INDEX 01 00:22:40
  TRACK 20 AUDIO
    TITLE "0:"
    INDEX 01 00:28:31
  TRACK 21 AUDIO
    TITLE "32:cjc123_6656"
    INDEX 01 00:29:03
  TRACK 22 AUDIO
    TITLE "0:"
    INDEX 01 00:34:14
  TRACK 23 AUDIO
    TITLE "28:cjc123_6657"
    INDEX 01 00:34:38
  TRACK 24 AUDIO
    TITLE "0:"
    INDEX 01 00:35:70
  TRACK 25 AUDIO
    TITLE "29:cjc123_6658"
    INDEX 01 00:36:09
  TRACK 26 AUDIO
    TITLE "0:"
    INDEX 01 00:37:20
  TRACK 27 AUDIO
    TITLE "30:cjc123_6659"
    INDEX 01 00:37:30
  TRACK 28 AUDIO
    TITLE "0:"
    INDEX 01 00:38:65
  TRACK 29 AUDIO
    TITLE "31:cjc123_6660"
    INDEX 01 00:39:54
  TRACK 30 AUDIO
    TITLE "0:"
    INDEX 01 00:44:56
  TRACK 31 AUDIO
    TITLE "32:cjc123_6661"
    INDEX 01 00:45:00
  TRACK 32 AUDIO
    TITLE "0:"
    INDEX 01 00:48:65
  TRACK 33 AUDIO
    TITLE "28:cjc123_6662"
    INDEX 01 00:49:35
  TRACK 34 AUDIO
    TITLE "0:"
    INDEX 01 00:50:48
  TRACK 35 AUDIO
    TITLE "29:cjc123_6663"
    INDEX 01 00:50:60
  TRACK 36 AUDIO
    TITLE "0:"
    INDEX 01 00:52:08
  TRACK 37 AUDIO
    TITLE "30:cjc123_6664"
    INDEX 01 00:52:18
  TRACK 38 AUDIO
    TITLE "0:"
    INDEX 01 00:53:31
  TRACK 39 AUDIO
    TITLE "31:cjc123_6665"
    INDEX 01 00:54:03
  TRACK 40 AUDIO
    TITLE "0:"
    INDEX 01 00:57:70
  TRACK 41 AUDIO
    TITLE "32:cjc123_6666"
    INDEX 01 00:58:24
  TRACK 42 AUDIO
    TITLE "0:"
    INDEX 01 01:01:05
  TRACK 43 AUDIO
    TITLE "28:cjc123_6667"
    INDEX 01 01:01:56
  TRACK 44 AUDIO
    TITLE "0:"
    INDEX 01 01:02:57
  TRACK 45 AUDIO
    TITLE "29:cjc123_6668"
    INDEX 01 01:02:71
  TRACK 46 AUDIO
    TITLE "0:"
    INDEX 01 01:04:23
  TRACK 47 AUDIO
    TITLE "30:cjc123_6669"
    INDEX 01 01:04:35
  TRACK 48 AUDIO
    TITLE "0:"
    INDEX 01 01:05:32
  TRACK 49 AUDIO
    TITLE "31:cjc123_6670"
    INDEX 01 01:06:06
  TRACK 50 AUDIO
    TITLE "0:"
    INDEX 01 01:10:37
  TRACK 51 AUDIO
    TITLE "32:cjc123_6671"
    INDEX 01 01:10:71
  TRACK 52 AUDIO
    TITLE "0:"
    INDEX 01 01:15:25
  TRACK 53 AUDIO
    TITLE "28:cjc123_6672"
    INDEX 01 01:15:70
  TRACK 54 AUDIO
    TITLE "0:"
    INDEX 01 01:16:73
  TRACK 55 AUDIO
    TITLE "29:cjc123_6673"
    INDEX 01 01:17:08
  TRACK 56 AUDIO
    TITLE "0:"
    INDEX 01 01:18:49
  TRACK 57 AUDIO
    TITLE "30:cjc123_6674"
    INDEX 01 01:18:56
  TRACK 58 AUDIO
    TITLE "0:"
    INDEX 01 01:19:62
  TRACK 59 AUDIO
    TITLE "31:cjc123_6675"
    INDEX 01 01:20:40
  TRACK 60 AUDIO
    TITLE "0:"
    INDEX 01 01:25:23
  TRACK 61 AUDIO
    TITLE "32:cjc123_6676"
    INDEX 01 01:25:53
  TRACK 62 AUDIO
    TITLE "0:"
    INDEX 01 01:29:58
  TRACK 63 AUDIO
    TITLE "28:cjc123_6677"
    INDEX 01 01:30:26
  TRACK 64 AUDIO
    TITLE "0:"
    INDEX 01 01:31:41
  TRACK 65 AUDIO
    TITLE "29:cjc123_6678"
    INDEX 01 01:31:47
  TRACK 66 AUDIO
    TITLE "0:"
    INDEX 01 01:32:64
  TRACK 67 AUDIO
    TITLE "30:cjc123_6679"
    INDEX 01 01:32:70
  TRACK 68 AUDIO
    TITLE "0:"
    INDEX 01 01:34:01
  TRACK 69 AUDIO
    TITLE "31:cjc123_6680"
    INDEX 01 01:34:52
  TRACK 70 AUDIO
    TITLE "0:"
    INDEX 01 01:39:29
  TRACK 71 AUDIO
    TITLE "32:cjc123_6681"
    INDEX 01 01:39:68
  TRACK 72 AUDIO
    TITLE "0:"
    INDEX 01 01:45:38
  TRACK 73 AUDIO
    TITLE "28:cjc123_6682"
    INDEX 01 01:45:61
  TRACK 74 AUDIO
    TITLE "0:"
    INDEX 01 01:47:05
  TRACK 75 AUDIO
    TITLE "29:cjc123_6683"
    INDEX 01 01:47:17
  TRACK 76 AUDIO
    TITLE "0:"
    INDEX 01 01:48:50
  TRACK 77 AUDIO
    TITLE "30:cjc123_6684"
    INDEX 01 01:48:54
  TRACK 78 AUDIO
    TITLE "0:"
    INDEX 01 01:49:65
  TRACK 79 AUDIO
    TITLE "31:cjc123_6685"
    INDEX 01 01:50:56
  TRACK 80 AUDIO
    TITLE "0:"
    INDEX 01 01:54:62
  TRACK 81 AUDIO
    TITLE "32:cjc123_6686"
    INDEX 01 01:55:34
  TRACK 82 AUDIO
    TITLE "0:"
    INDEX 01 01:59:61
  TRACK 83 AUDIO
    TITLE "28:cjc123_6687"
    INDEX 01 02:00:10
  TRACK 84 AUDIO
    TITLE "0:"
    INDEX 01 02:01:43
  TRACK 85 AUDIO
    TITLE "29:cjc123_6688"
    INDEX 01 02:01:50
  TRACK 86 AUDIO
    TITLE "0:"
    INDEX 01 02:03:14
  TRACK 87 AUDIO
    TITLE "30:cjc123_6689"
    INDEX 01 02:03:20
  TRACK 88 AUDIO
    TITLE "0:"
    INDEX 01 02:04:43
  TRACK 89 AUDIO
    TITLE "31:cjc123_6690"
    INDEX 01 02:05:15
  TRACK 90 AUDIO
    TITLE "0:"
    INDEX 01 02:09:34
  TRACK 91 AUDIO
    TITLE "32:cjc123_6691"
    INDEX 01 02:09:64
  TRACK 92 AUDIO
    TITLE "0:"
    INDEX 01 02:14:22
  TRACK 93 AUDIO
    TITLE "28:cjc123_6692"
    INDEX 01 02:14:67
  TRACK 94 AUDIO
    TITLE "0:"
    INDEX 01 02:15:68
  TRACK 95 AUDIO
    TITLE "29:cjc123_6693"
    INDEX 01 02:16:01
  TRACK 96 AUDIO
    TITLE "0:"
    INDEX 01 02:17:20
  TRACK 97 AUDIO
    TITLE "30:cjc123_6694"
    INDEX 01 02:17:28
  TRACK 98 AUDIO
    TITLE "0:"
    INDEX 01 02:18:35
  TRACK 99 AUDIO
    TITLE "31:cjc123_6695"
    INDEX 01 02:19:07
  TRACK 100 AUDIO
    TITLE "0:"
    INDEX 01 02:23:52
  TRACK 101 AUDIO
    TITLE "32:cjc123_6696"
    INDEX 01 02:24:42
  TRACK 102 AUDIO
    TITLE "0:"
    INDEX 01 02:29:74
  TRACK 103 AUDIO
    TITLE "28:cjc123_6697"
    INDEX 01 02:30:32
  TRACK 104 AUDIO
    TITLE "0:"
    INDEX 01 02:31:53
  TRACK 105 AUDIO
    TITLE "29:cjc123_6698"
    INDEX 01 02:32:02
  TRACK 106 AUDIO
    TITLE "0:"
    INDEX 01 02:33:31
  TRACK 107 AUDIO
    TITLE "30:cjc123_6699"
    INDEX 01 02:33:41
  TRACK 108 AUDIO
    TITLE "0:"
    INDEX 01 02:34:66
  TRACK 109 AUDIO
    TITLE "31:cjc123_6700"
    INDEX 01 02:35:39
  TRACK 110 AUDIO
    TITLE "0:"
    INDEX 01 02:40:56
  TRACK 111 AUDIO
    TITLE "32:cjc123_6701"
    INDEX 01 02:41:28
  TRACK 112 AUDIO
    TITLE "0:"
    INDEX 01 02:46:65
  TRACK 113 AUDIO
    TITLE "28:cjc123_6702"
    INDEX 01 02:47:37
  TRACK 114 AUDIO
    TITLE "0:"
    INDEX 01 02:48:44
  TRACK 115 AUDIO
    TITLE "29:cjc123_6703"
    INDEX 01 02:48:54
  TRACK 116 AUDIO
    TITLE "0:"
    INDEX 01 02:50:14
  TRACK 117 AUDIO
    TITLE "30:cjc123_6704"
    INDEX 01 02:50:19
  TRACK 118 AUDIO
    TITLE "0:"
    INDEX 01 02:51:29
  TRACK 119 AUDIO
    TITLE "31:cjc123_6705"
    INDEX 01 02:52:01
  TRACK 120 AUDIO
    TITLE "0:"
    INDEX 01 02:57:35
  TRACK 121 AUDIO
    TITLE "32:cjc123_6706"
    INDEX 01 02:57:70
  TRACK 122 AUDIO
    TITLE "0:"
    INDEX 01 03:03:12
  TRACK 123 AUDIO
    TITLE "28:cjc123_6707"
    INDEX 01 03:03:57
  TRACK 124 AUDIO
    TITLE "0:"
    INDEX 01 03:04:71
  TRACK 125 AUDIO
    TITLE "29:cjc123_6708"
    INDEX 01 03:05:01
  TRACK 126 AUDIO
    TITLE "0:"
    INDEX 01 03:06:26
  TRACK 127 AUDIO
    TITLE "30:cjc123_6709"
    INDEX 01 03:06:34
  TRACK 128 AUDIO
    TITLE "0:"
    INDEX 01 03:07:41
  TRACK 129 AUDIO
    TITLE "31:cjc123_6710"
    INDEX 01 03:08:12
  TRACK 130 AUDIO
    TITLE "0:"
    INDEX 01 03:12:17
  TRACK 131 AUDIO
    TITLE "32:cjc123_6711"
    INDEX 01 03:12:54
  TRACK 132 AUDIO
    TITLE "0:"
    INDEX 01 03:16:29
  TRACK 133 AUDIO
    TITLE "28:cjc123_6712"
    INDEX 01 03:16:50
  TRACK 134 AUDIO
    TITLE "0:"
    INDEX 01 03:17:61
  TRACK 135 AUDIO
    TITLE "29:cjc123_6713"
    INDEX 01 03:17:69
  TRACK 136 AUDIO
    TITLE "0:"
    INDEX 01 03:19:29
  TRACK 137 AUDIO
    TITLE "30:cjc123_6714"
    INDEX 01 03:19:39
  TRACK 138 AUDIO
    TITLE "0:"
    INDEX 01 03:20:56
  TRACK 139 AUDIO
    TITLE "31:cjc123_6715"
    INDEX 01 03:21:24
  TRACK 140 AUDIO
    TITLE "0:"
    INDEX 01 03:26:43
  TRACK 141 AUDIO
    TITLE "32:cjc123_6716"
    INDEX 01 03:27:15
  TRACK 142 AUDIO
    TITLE "0:"
    INDEX 01 03:32:34
  TRACK 143 AUDIO
    TITLE "28:cjc123_6717"
    INDEX 01 03:32:57
  TRACK 144 AUDIO
    TITLE "0:"
    INDEX 01 03:33:68
  TRACK 145 AUDIO
    TITLE "29:cjc123_6718"
    INDEX 01 03:34:03
  TRACK 146 AUDIO
    TITLE "0:"
    INDEX 01 03:35:34
  TRACK 147 AUDIO
    TITLE "30:cjc123_6719"
    INDEX 01 03:35:46
  TRACK 148 AUDIO
    TITLE "0:"
    INDEX 01 03:36:43
  TRACK 149 AUDIO
    TITLE "31:cjc123_6720"
    INDEX 01 03:37:52
  TRACK 150 AUDIO
    TITLE "0:"
    INDEX 01 03:43:37
  TRACK 151 AUDIO
    TITLE "32:cjc123_6721"
    INDEX 01 03:43:53
  TRACK 152 AUDIO
    TITLE "0:"
    INDEX 01 03:48:36
